<svg xmlns="http://www.w3.org/2000/svg" viewBox="0 0 560 256" width="560" height="256">
  <title>PeakCatcher — AI logo</title>
  <text x="150" y="158" font-family="&#39;Cormorant Garamond&#39;, Georgia, &#39;Times New Roman&#39;, serif" font-size="130" font-weight="500" letter-spacing="0.02em" fill="#405a7e">AI</text>
  <svg x="120" y="112" width="212" height="34" viewBox="0 0 316 48" preserveAspectRatio="none" overflow="visible"><polyline points="0,24 58,24 78,24 88,10 98,38 108,16 118,24 150,24 188,24 199,3 210,45 221,24 252,24 310,24 316,24" fill="none" stroke="#405a7e" stroke-width="3.2" stroke-linecap="round" stroke-linejoin="round"></polyline></svg>
  <text x="311" y="230" text-anchor="middle" font-family="&#39;Cormorant Garamond&#39;, Georgia, &#39;Times New Roman&#39;, serif" font-size="30" font-weight="500" letter-spacing="0.12em" fill="#405a7e">Boston Neuromind, LLC</text>
  <svg x="322" y="37" width="150" height="150" viewBox="328 328 701 701" overflow="hidden"><defs id="SvgjsDefs11354"></defs><g id="SvgjsG11355" transform="translate(328, 327.99999999999994) scale(34.4)" opacity="1"><defs id="SvgjsDefs4248"></defs><g id="SvgjsG4249" transform="scale(0.2132689846820557)" opacity="1"><g id="SvgjsG4250" class="YUjevXuaT" transform="translate(0, 0) scale(0.35707955542779735)" light-content="false" non-strokable="false" fill="#5a8acc"><circle cx="133.8" cy="133.8" r="133.8"></circle></g><g id="SvgjsG4251" class="lD5alGfP0t" transform="translate(81.47759719365295, 13.9918386537295) scale(-0.9788436171573386 0.9788436171573386)" light-content="true" non-strokable="false" fill="#ffffff"><path d="M42.325 60H27.6a1 1 0 0 1-1-1v-8.765h-6.464a1 1 0 0 1-1-1v-8.572H11a1.001 1.001 0 0 1-.827-1.561l4.765-7.022a20.116 20.116 0 0 1-.093-1.957C14.845 19.027 23.872 10 34.968 10S55.09 19.027 55.09 30.123c0 5.25-2.014 10.22-5.672 13.996-3.93 4.057-6.094 9.179-6.094 14.422V59a1 1 0 0 1-1 1zM28.6 58h12.732c.143-5.575 2.492-10.98 6.651-15.272a18.031 18.031 0 0 0 5.108-12.605C53.09 20.13 44.96 12 34.968 12s-18.123 8.13-18.123 18.123c0 .716.04 1.42.12 2.097a1 1 0 0 1-.165.68l-3.912 5.763h7.248a1 1 0 0 1 1 1v8.572H27.6a1 1 0 0 1 1 1V58z"></path><path d="M32.036 41.68a.999.999 0 0 1-.855-1.516l6.072-10.09h-6.339a1 1 0 0 1-.856-1.516l5.721-9.507a.997.997 0 0 1 1.372-.341.999.999 0 0 1 .341 1.372l-4.81 7.991h6.34a1 1 0 0 1 .856 1.516l-6.985 11.607a1 1 0 0 1-.857.485z"></path><path d="M54.645 48.042a1 1 0 0 1-1-1v-3.74a3.18 3.18 0 0 1 3.178-3.177c.649 0 1.177-.528 1.177-1.177V32.3c0-.649-.528-1.177-1.177-1.177h-2.732a1 1 0 1 1 0-2h2.732A3.18 3.18 0 0 1 60 32.3v6.648a3.18 3.18 0 0 1-3.177 3.177c-.65 0-1.178.528-1.178 1.177v3.74a1 1 0 0 1-1 1z"></path><g transform="translate(1.5 0) rotate(-90 54.645 48.042)"><path d="M59 56.417h-8.708a1 1 0 0 1-1-1v-4.026a5.355 5.355 0 0 1 10.708 0v4.026a1 1 0 0 1-1 1zm-7.708-2H58v-3.026a3.354 3.354 0 0 0-6.708 0v3.026zM51.854 60a1 1 0 0 1-1-1v-3.583a1 1 0 1 1 2 0V59a1 1 0 0 1-1 1zm5.583 0a1 1 0 0 1-1-1v-3.583a1 1 0 1 1 2 0V59a1 1 0 0 1-1 1z"></path></g></g></g></g></svg>
</svg>